<svg width="64" height="64" viewBox="0 0 64 64" fill="none" xmlns="http://www.w3.org/2000/svg">
  <!-- 배경 원 -->
  <circle cx="32" cy="32" r="30" fill="#1a1a1a" stroke="#333" stroke-width="3"/>
  
  <!-- 몸통 (흰색 둥근 형태) - 손으로 그린 듯한 느낌 -->
  <path d="M14 36 Q14 50 32 50 Q50 50 50 36 Q50 30 45 28 Q40 26 32 26 Q24 26 19 28 Q14 30 14 36 Z" 
        fill="white" stroke="black" stroke-width="3" stroke-linecap="round"/>
  
  <!-- 머리/모자 (주황색 돔) - 더 둥글고 귀여운 형태 -->
  <path d="M16 28 Q16 20 32 20 Q48 20 48 28 Q48 32 45 34 Q40 36 32 36 Q24 36 19 34 Q16 32 16 28 Z" 
        fill="#ff6b35" stroke="black" stroke-width="3" stroke-linecap="round"/>
  
  <!-- 귀/안테나 - 더 뾰족하고 귀여운 형태 -->
  <path d="M24 22 L22 16 L20 14" stroke="black" stroke-width="3" stroke-linecap="round"/>
  <path d="M40 22 L42 16 L44 14" stroke="black" stroke-width="3" stroke-linecap="round"/>
  
  <!-- 눈 - 더 귀여운 형태 -->
  <circle cx="26" cy="26" r="2.5" fill="black"/>
  <circle cx="38" cy="26" r="2.5" fill="black"/>
  
  <!-- 입 (놀란 표정) - 더 귀여운 형태 -->
  <rect x="29" y="32" width="6" height="4" fill="black" rx="2" ry="2"/>
  <circle cx="32" cy="34" r="1.5" fill="#ff69b4"/>
  
  <!-- 안테나 끝 (주황색 점) -->
  <circle cx="44" cy="14" r="3" fill="#ff6b35"/>
  
  <!-- 귀여운 효과 - 하이라이트 -->
  <circle cx="24" cy="24" r="1.5" fill="white" opacity="0.9"/>
  <circle cx="36" cy="24" r="1.5" fill="white" opacity="0.9"/>
  
  <!-- 추가 귀여운 효과 - 볼 홍조 -->
  <circle cx="20" cy="30" r="2" fill="#ffb3d9" opacity="0.6"/>
  <circle cx="44" cy="30" r="2" fill="#ffb3d9" opacity="0.6"/>
</svg> 